<?xml version="1.0" encoding="utf-8"?>
<!-- Generator: Adobe Illustrator 17.0.0, SVG Export Plug-In . SVG Version: 6.00 Build 0)  -->
<!DOCTYPE svg PUBLIC "-//W3C//DTD SVG 1.1//EN" "http://www.w3.org/Graphics/SVG/1.1/DTD/svg11.dtd">
<svg version="1.1"
	 id="svg2" xmlns:inkscape="http://www.inkscape.org/namespaces/inkscape" xmlns:cc="http://creativecommons.org/ns#" xmlns:rdf="http://www.w3.org/1999/02/22-rdf-syntax-ns#" xmlns:sodipodi="http://sodipodi.sourceforge.net/DTD/sodipodi-0.dtd" xmlns:dc="http://purl.org/dc/elements/1.1/" xmlns:svg="http://www.w3.org/2000/svg" sodipodi:docname="SYTEL BG Artwork_DB1_Comp - SVG.svg" inkscape:version="0.48.5 r10040"
	 xmlns="http://www.w3.org/2000/svg" xmlns:xlink="http://www.w3.org/1999/xlink" x="0px" y="0px" width="9538.588px"
	 height="7901.575px" viewBox="0 0 9538.588 7901.575" enable-background="new 0 0 9538.588 7901.575" xml:space="preserve">
<sodipodi:namedview  id="namedview4" borderopacity="1" inkscape:cx="4630.1363" pagecolor="#ffffff" inkscape:zoom="0.04665165" gridtolerance="10" objecttolerance="10" bordercolor="#666666" inkscape:cy="4808.6982" guidetolerance="10" showgrid="false" inkscape:current-layer="layer1" inkscape:window-y="0" inkscape:window-height="554" inkscape:pageopacity="0" inkscape:pageshadow="2" inkscape:window-maximized="0" inkscape:window-width="747" inkscape:window-x="0">
	</sodipodi:namedview>
<g id="layer1" inkscape:label="bgdesign" inkscape:groupmode="layer">
	<g id="g6363">
		<g id="g24" transform="matrix(1.25,0,0,-1.25,3678.9393,721.53413)">
		</g>
		<g id="g28" transform="matrix(1.25,0,0,-1.25,4018.6206,576.23013)">
		</g>
		<g id="g36" transform="matrix(1.25,0,0,-1.25,4504.5282,284.85075)">
		</g>
		<g id="g40" transform="matrix(1.25,0,0,-1.25,4562.3077,766.46087)">
		</g>
		<g id="g44" transform="matrix(1.25,0,0,-1.25,3225.5029,216.39062)">
		</g>
		<g id="g48" transform="matrix(1.25,0,0,-1.25,3115.3589,431.33875)">
		</g>
		<g id="g74" transform="matrix(1.25,0,0,-1.25,5122.2375,4116.6714)">
			<path id="path76" inkscape:connector-curvature="0" fill="#00AF4F" fill-opacity="0.9412" d="M0.8,0l-52.044-52.532H-792.9
				l-231.014,231.176l236.234,236.397v154.8h52.534V393.18l-214.536-214.536L-771.039,0H0.8z"/>
		</g>
		<g id="g78" transform="matrix(1.25,0,0,-1.25,5042.2974,4588.9761)">
			<path id="path80" inkscape:connector-curvature="0" fill="#004857" d="M0,0h423.524L293.987-132.475l-988.007,0.327h-1329.958
				l-116.647-116.648l124.479-124.317c4.731,1.142,9.625,1.795,14.683,1.795c31.65,0,57.265-25.777,57.265-57.264
				c0-31.324-25.615-57.1-57.265-57.1c-31.487,0-57.1,25.776-57.1,57.1c0,6.853,1.305,13.378,3.426,19.413l-123.012,122.85
				l-212.252-212.416l137.043-134.431l-37.523-37.522l-137.043,134.43L-2584.87-693.04v-793.212l230.524-224.651l-37.523-37.523
				l-78.799,72.926l-95.766-95.604l172.281-172.281v-129.863c15.661-10.277,25.941-27.897,25.941-47.801
				c0-31.65-25.615-57.426-57.102-57.426c-31.65,0-57.1,25.776-57.1,57.426c0,23.82,14.518,44.213,35.401,52.696v102.946
				l-156.945,156.781l-74.067-74.067l-37.361,37.522l207.195,207.194l-129.7,129.702v623.212l-301.329-301.654v-230.524
				l175.869-175.707v-131.006c17.295-9.788,29.039-28.388,29.039-49.596c0-31.649-25.613-57.263-57.262-57.263
				c-31.323,0-57.102,25.614-57.102,57.263c0,22.515,13.216,42.093,32.302,51.391v107.186l-122.846,122.686v-432.825
				c18.108-9.625,30.507-28.713,30.507-50.576c0-31.322-25.776-57.1-57.264-57.1c-31.487,0-57.101,25.778-57.101,57.1
				c0,22.189,12.563,41.441,30.835,50.903v684.883l-158.74-158.903v-351.252c16.479-9.953,27.409-28.06,27.409-48.781
				c0-31.486-25.614-57.264-57.101-57.264c-31.65,0-57.101,25.778-57.101,57.264c0,23.33,13.868,43.234,33.77,52.207v168.856
				l-173.096-175.381v-171.14c18.598-9.298,31.487-28.713,31.487-50.901c0-31.65-25.776-57.264-57.263-57.264
				c-31.488,0-57.101,25.614-57.101,57.264c0,21.535,12.073,40.46,29.854,50.085v193.165l226.119,225.956v129.21l566.115,566.603
				v139.162l592.052,591.891H-694.02h612.448L0,0z"/>
		</g>
		<g id="g82" transform="matrix(1.25,0,0,-1.25,1241.0181,3913.9639)">
			<path id="path84" inkscape:connector-curvature="0" fill="#00AF4F" fill-opacity="0.9412" d="M0.8,0
				c22.352-21.861,40.46-43.723,52.859-60.2L77.48-83.53c-12.236-40.623-20.23-83.204-20.395-125.459
				c0-51.228,12.4-102.618,45.193-146.341c72.272-95.276,195.937-140.793,307.853-165.267
				c80.105-17.293,155.151-23.165,203.116-25.123L481.589-677.378L200.001-967.123c-4.894,1.468-10.115,2.121-15.5,2.121
				c-31.649,0-57.262-25.614-57.262-57.264c0-31.325,25.613-57.101,57.262-57.101c31.487,0,57.265,25.776,57.265,57.101
				c0,6.852-1.143,13.214-3.425,19.25l25.45,32.629l559.261,564.972h2137.199l81.572-82.715h268.538l-129.702,130.353
				l-1401.089-1.142L1517.886-97.234c-0.163,0.163-168.203,187.291-280.937,299.86c-46.169,46.333-74.556,88.098-74.556,140.142
				c0,24.145,6.036,52.206,21.535,85.488c21.535,21.535,71.622,61.994,141.936,61.506c33.446,0,72.437-8.648,117.791-33.446
				c62.647-35.402,79.289-126.437,79.289-126.437h52.532c0,0-27.897,130.19-106.37,172.444
				c-52.042,28.714-100.496,40.134-143.242,40.134c-28.55,0-54.328-5.058-77.004-12.725
				c36.055,45.844,84.999,98.376,149.277,158.903l-35.892,38.339c-91.361-85.814-153.682-157.109-193.978-219.267
				c-10.769-16.967-20.068-33.118-34.425-62.647c-16.313-36.708-23.981-70.48-23.981-102.292
				c0-73.252,40.949-128.558,89.892-177.339c55.47-55.306,125.459-130.19,181.58-191.043
				c56.285-60.853,98.213-107.675,98.377-107.838l224.977-225.141l-448.649-0.326L944.594-47.802v737.416
				c-1.794,38.828-12.726,111.917-89.892,167.387c-31.325,22.84-72.762,43.069-125.785,62.158l-28.714-50.086
				c56.775-15.335,96.418-34.586,123.502-54.49c59.874-44.539,65.583-90.872,68.52-127.416l-2.447-516.027
				c-23.004-15.173-128.395-76.516-218.777-75.864c-34.913,0.164-66.401,8.321-93.157,29.203
				c-26.919,21.046-50.575,56.123-65.584,115.344c-8.81,35.076-11.747,61.669-11.747,84.02c0,27.734,4.568,49.269,9.626,73.741
				c5.22,24.309,10.932,51.392,10.932,86.141c0,24.634-4.243,52.533-10.278,86.794c-23.494,135.572-162.657,170.648-162.657,170.648
				l-18.599-49.106c0,0,43.071-18.925,60.691-31.161c-4.731-21.698-18.11-68.52-49.923-111.754l51.227-18.435
				c21.047,32.139,33.935,63.789,41.765,88.424c12.236-17.13,21.21-36.87,26.266-59.711c6.527-30.834,8.811-54.98,8.811-75.699
				c0-29.04-4.405-51.065-9.626-75.373c-5.056-24.146-10.766-50.901-10.766-84.509c0-27.082,3.752-58.406,13.377-96.908
				c16.803-67.216,46.17-114.365,84.182-143.894c37.687-29.529,82.39-40.297,125.46-40.297
				c88.914,0.652,175.869,42.907,221.06,68.684V-69.5l289.257-289.256l-380.128,0.979L656.644-494.33
				c-29.531,0-128.885,1.958-235.419,25.125c-106.696,22.678-219.103,67.379-276.857,145.361
				c-24.634,32.956-34.586,71.785-34.586,114.855c-0.327,77.168,33.934,165.593,69.334,233.624
				c17.622,34.097,35.241,63.137,48.457,83.531L341.121,283.22l-42.255,31.323c-0.651-0.652-129.211-193.815-166.406-265.763
				c-12.4-23.982-24.801-50.412-36.056-78.309C82.862-11.42,62.796,13.052,37.508,37.687L0.8,0z"/>
		</g>
		<g id="g86" transform="matrix(1.25,0,0,-1.25,5644.0979,4116.6714)">
			<g>
				<g id="path88_9_" inkscape:connector-curvature="0">
					<path opacity="0.9412" fill="#00AF4F" d="M0.8,0h822.251L673.61-149.441H358.088L184.175-325.964l-323.353,0.163
						l-169.998,174.239l-838.239,0.326h-220.245l-253.527,250.102l-150.584,150.746l167.878,168.039
						c-38.829,39.481-181.092,187.943-181.092,187.943v633.655h52.532V625.824c0,0,141.61-150.746,165.43-171.792l131.658,131.985
						v133.289h52.532V564.318l-314.706-314.706l351.577-351.741h198.547l696.466-0.163L-348.819,0h275.062H0.8z"/>
				</g>
			</g>
		</g>
		<g id="g90" transform="matrix(1.25,0,0,-1.25,2087.7405,3441.0476)">
			<path id="path92" inkscape:connector-curvature="0" fill="#00AF4F" fill-opacity="0.9412" d="M0,0
				c46.333-75.046,172.282-14.356,183.539,0.653c-11.095,6.036-36.382,14.03-76.841-3.426
				c-32.467-13.541,23.656,16.477,23.656,16.477s0.326,15.825-32.303,13.541c-32.629-2.446-66.889-4.567-66.889-4.567l61.18,9.462
				L-15.824,61.017c0,0,134.431-35.893,129.048-23.494l-6.364,17.621c0,0,6.527-18.926,31.65-31.651
				c4.569-2.447,21.536-15.01,50.74-14.194c4.078,6.037,0.162,77.984-48.129,102.618C93.157,136.39-74.883,74.068-74.883,74.068
				S-46.169,74.884,0,0"/>
		</g>
		<g id="g94" transform="matrix(1.25,0,0,-1.25,2719.5203,2945.9024)">
			<path id="path96" inkscape:connector-curvature="0" fill="#00AF4F" fill-opacity="0.9412" d="M0,0
				c-20.394-63.463,76.352-105.881,90.383-104.902c-1.958,9.136-9.79,27.571-39.645,42.417
				c-23.655,11.911,20.883-5.546,20.883-5.546s9.299,7.667-7.995,24.961C46.333-25.287,28.224-6.852,28.224-6.852l35.402-30.345
				L27.245,38.992c0,0,45.191-94.788,49.76-85.488l7.014,12.235c0,0-7.667-12.887-2.61-33.608
				c0.816-3.914,1.958-19.903,16.641-36.381c5.546,0.816,45.028,38.339,35.403,78.146C123.991,13.541,5.71,79.289,5.71,79.289
				S20.23,63.3,0,0"/>
		</g>
		<g id="g98" transform="matrix(1.25,0,0,-1.25,1879.1199,4305.9195)">
			<path id="path100" inkscape:connector-curvature="0" fill="#00AF4F" fill-opacity="0.9412" d="M0,0
				c23.656-109.797,201.157-91.198,221.062-77.82c-10.768,11.746-37.361,32.302-93.973,29.039c-44.7-2.611,35.73,9.301,35.73,9.301
				S169.997-20.557,129.7-9.3C89.566,1.957,47.312,13.867,47.312,13.867l77.657-14.846L7.178,80.431
				c0,0,146.342-101.152,145.362-84.021c-0.815,9.463,0,24.146,0,24.146s-0.49-25.614,23.982-51.554
				c4.569-5.057,19.741-27.571,54.98-39.154c7.831,5.709,33.935,93.807-13.377,144.219C170.486,124.316-57.917,121.38-57.917,121.38
				S-23.33,110.122,0,0"/>
		</g>
		<g id="g102" transform="matrix(1.25,0,0,-1.25,4307.6141,3431.0239)">
			<path id="path104" inkscape:connector-curvature="0" fill="#00AF4F" fill-opacity="0.9412" d="M0,0
				c-52.207,5.873-69.989-75.7-67.053-86.63c6.69,2.937,19.904,11.909,26.757,37.524C-34.914-28.877-41.44-66.4-41.44-66.4
				s7.343-5.711,18.273,10.441C-12.235-39.971-0.653-22.84-0.653-22.84l-18.109-32.303L34.75-15.01c0,0-66.4-50.085-58.733-52.043
				l10.605-3.59c0,0-11.093,4.08-26.43-3.099c-2.773-1.305-15.009-4.731-25.45-18.762c1.468-4.078,36.871-28.713,66.073-15.009
				C30.181-93.646,62.483,8.157,62.483,8.157S52.37-5.547,0,0"/>
		</g>
		<g id="g106" transform="matrix(1.25,0,0,-1.25,3232.2034,3108.6393)">
			<path id="path108" inkscape:connector-curvature="0" fill="#00AF4F" fill-opacity="0.9412" d="M0,0
				c-78.799,8.647-105.718-114.365-101.149-130.679c10.115,4.405,30.181,17.946,40.295,56.284
				c7.995,30.509-1.631-25.777-1.631-25.777s11.094-8.973,27.409,15.337C-18.598-60.364-1.143-34.587-1.143-34.587l-27.244-48.78
				l80.593,60.69c0,0-100.17-75.699-88.261-78.636l15.988-5.384c0,0-16.967,6.199-39.97-4.568
				c-4.242-2.121-22.678-7.178-38.176-28.224c1.958-6.363,55.143-43.397,99.355-23.004C45.354-141.61,94.135,12.073,94.135,12.073
				S78.799-8.647,0,0"/>
		</g>
		<g id="g110" transform="matrix(1.25,0,0,-1.25,4048.8836,2975.7193)">
			<path id="path112" inkscape:connector-curvature="0" fill="#00AF4F" fill-opacity="0.9412" d="M0,0
				c-94.949,10.277-127.089-137.858-121.705-157.599c12.399,5.547,36.054,21.699,48.455,68.032
				c9.625,36.871-1.959-31.161-1.959-31.161s13.542-10.767,33.119,18.762C-22.35-72.6-1.305-41.767-1.305-41.767l-32.628-58.731
				l96.908,73.089c0,0-120.727-91.035-106.371-94.624c7.667-1.795,19.578-6.363,19.578-6.363s-20.556,7.178-48.291-5.71
				c-5.221-2.284-27.41-8.483-46.17-33.77c2.448-7.832,66.563-52.37,119.911-27.572C54.654-170.651,113.387,14.355,113.387,14.355
				S95.114-10.442,0,0"/>
		</g>
		<g id="g114" transform="matrix(1.25,0,0,-1.25,2735.0195,3955.7694)">
			<path id="path116" inkscape:connector-curvature="0" fill="#00AF4F" fill-opacity="0.9412" d="M0,0
				c-78.799,8.646-105.718-114.365-100.987-130.68c10.115,4.405,29.855,17.947,40.133,56.285
				c8.159,30.508-1.631-25.777-1.631-25.777s11.257-8.973,27.571,15.336C-18.437-60.364-1.142-34.587-1.142-34.587l-27.083-48.78
				l80.431,60.689c0,0-100.008-75.699-88.261-78.635l16.151-5.384c0,0-17.13,6.199-40.134-4.406
				c-4.242-2.283-22.514-7.34-38.176-28.386c1.958-6.364,55.306-43.561,99.519-23.003C45.518-141.61,94.297,12.073,94.297,12.073
				S78.961-8.646,0,0"/>
		</g>
		<g id="g118" transform="matrix(1.25,0,0,-1.25,3556.6589,2471.354)">
			<path id="path120" inkscape:connector-curvature="0" fill="#00AF4F" fill-opacity="0.9412" d="M0,0
				c4.731-59.874-51.718-68.847-59.222-63.79c1.794,7.178,7.993,20.557,25.614,24.798c14.031,3.426-11.911,1.305-11.911,1.305
				s-4.241,9.136,7.016,19.251C-27.572-8.32-15.989,2.447-15.989,2.447l-22.188-16.151l27.244,54.979
				c0,0-33.933-68.357-35.238-59.221l-2.773,12.562c0,0,3.099-13.052-1.794-29.529c-0.817-3.1-2.938-16.315-12.725-26.104
				c-2.775,2.121-20.394,45.518-11.258,76.679c8.973,31.323,79.615,54.001,79.615,54.001S-4.569,60.037,0,0"/>
		</g>
		<g id="g122" transform="matrix(1.25,0,0,-1.25,1883.1976,2960.1772)">
			<path id="path124" inkscape:connector-curvature="0" fill="#00AF4F" fill-opacity="0.9412" d="M0,0
				c4.569-60.201-51.88-69.01-59.221-64.117c1.795,7.179,7.994,20.721,25.613,24.963c14.031,3.425-11.909,1.141-11.909,1.141
				s-4.405,9.136,6.852,19.251C-27.571-8.647-15.988,2.12-15.988,2.12l-22.186-15.987l27.244,54.979
				c0,0-33.934-68.358-35.239-59.221l-15.01,33.771c0,0,15.336-34.424,10.442-50.738c-0.818-3.1-3.1-16.478-12.725-26.266
				c-2.939,2.283-20.395,45.517-11.258,76.841C-65.747,46.822,4.731,69.5,4.731,69.5S-4.567,59.711,0,0"/>
		</g>
		<g id="g126" transform="matrix(1.25,0,0,-1.25,3577.0508,2656.7276)">
			<path id="path128" inkscape:connector-curvature="0" fill="#00AF4F" fill-opacity="0.9412" d="M0,0
				c-31.487-39.155-61.505-12.399-61.994-4.895c4.73,3.1,15.171,7.995,25.287,0.491c8.157-6.2-4.567,7.34-4.567,7.34
				s3.098,8.158,13.703,7.995c10.605-0.327,21.861-0.49,21.861-0.49l-18.926,2.937l42.745,17.946l-48.781-15.825l6.036,9.298
				c0,0-6.198-9.788-17.456-16.966c-2.121-1.469-10.603-8.321-20.228-8.81c0,2.936,16.477,39.481,38.012,53.186
				c21.535,13.867,65.421-12.563,65.421-12.563S31.65,39.155,0,0"/>
		</g>
		<g id="g130" transform="matrix(1.25,0,0,-1.25,2476.842,2904.5041)">
			<path id="path132" inkscape:connector-curvature="0" fill="#00AF4F" fill-opacity="0.9412" d="M0,0
				c-31.65-39.155-61.669-12.236-62.158-4.895c4.732,3.264,15.172,7.995,25.287,0.49c8.157-6.037-4.568,7.505-4.568,7.505
				s3.1,7.994,13.542,7.668c10.767-0.164,22.024-0.327,22.024-0.327l-18.925,3.101l42.907,17.782l-48.78-15.825l5.873,9.136
				c0,0-6.037-9.626-17.457-16.804c-2.12-1.469-10.605-8.158-20.23-8.81c0,2.937,16.314,39.481,38.013,53.348
				C-2.937,66.074,40.95,39.644,40.95,39.644S31.487,39.317,0,0"/>
		</g>
		<g id="g134" transform="matrix(1.25,0,0,-1.25,3347.832,2465.2365)">
			<path id="path136" inkscape:connector-curvature="0" fill="#00AF4F" fill-opacity="0.9412" d="M0,0
				c53.839-9.299,46.008-87.283,39.481-95.929c-5.709,4.405-15.989,15.988-14.683,40.786c0.979,19.577-4.404-15.825-4.404-15.825
				S11.42-74.23,5.547-56.774C-0.326-39.155-6.2-20.882-6.2-20.882l7.669-33.771L-39.154-4.079c0,0,50.411-62.973,42.092-62.647
				l-11.911-0.326c0,0,12.563,0.489,25.614-9.952c2.284-1.794,13.215-8.321,19.252-23.656c-2.774-3.426-45.519-15.825-70.48,4.567
				C-59.548-75.699-59.548,24.146-59.548,24.146S-53.839,8.973,0,0"/>
		</g>
		<g id="g138" transform="matrix(1.25,0,0,-1.25,2401.5918,2720.3542)">
			<path id="path140" inkscape:connector-curvature="0" fill="#00AF4F" fill-opacity="0.9412" d="M0,0
				c35.077-41.766-21.209-96.093-31.814-98.54c-1.468,7.179-1.794,22.514,15.011,40.623c13.539,14.357-13.38-9.298-13.38-9.298
				s-8.972,3.425-2.284,20.392c6.853,17.294,14.194,35.076,14.194,35.076l-16.152-30.671l1.958,64.606l-8.482-74.721l-9.3,7.505
				c0,0,9.953-7.994,13.051-24.145c0.49-3.1,4.895-15.01-0.653-30.671c-4.078-0.817-44.863,17.456-50.737,49.106
				C-94.299-19.251-29.856,57.101-29.856,57.101S-35.24,41.765,0,0"/>
		</g>
		<g id="g142" transform="matrix(1.25,0,0,-1.25,1376.6321,3553.4134)">
			<path id="path144" inkscape:connector-curvature="0" fill="#00AF4F" fill-opacity="0.9412" d="M0,0
				c27.41-4.568,23.169-44.05,19.904-48.617c-2.774,2.447-7.994,8.32-7.34,20.719c0.489,9.952-2.286-7.831-2.286-7.831
				s-4.566-1.631-7.504,7.015c-2.936,9.136-5.873,18.272-5.873,18.272l3.753-17.13L-19.904-1.958l21.373-31.65l-6.036-0.326
				l12.889-5.058c1.141-0.979,6.688-4.241,9.951-11.909c-1.468-1.632-23.166-7.995-35.891,2.284
				c-12.563,10.278-12.563,60.852-12.563,60.852S-27.244,4.73,0,0"/>
		</g>
		<g id="g146" transform="matrix(1.25,0,0,-1.25,1491.8543,3455.7302)">
			<path id="path148" inkscape:connector-curvature="0" fill="#00AF4F" fill-opacity="0.9412" d="M0,0
				c53.838-9.136,45.681-87.119,39.317-95.767c-5.71,4.406-15.987,16.152-14.682,40.787c0.979,19.415-4.405-15.826-4.405-15.826
				s-9.137-3.262-15.009,14.194C-0.49-39.155-6.526-20.72-6.526-20.72l7.669-33.77l-40.46,50.574c0,0,50.41-62.974,41.928-62.484
				l-11.748-0.49c0,0,12.563,0.49,25.451-9.952c2.286-1.794,13.379-8.32,19.252-23.655c-2.61-3.426-45.518-15.825-70.316,4.568
				C-59.711-75.536-59.711,24.309-59.711,24.309S-54.001,9.136,0,0"/>
		</g>
		<g id="g150" transform="matrix(1.25,0,0,-1.25,3550.3369,3023.1924)">
			<path id="path152" inkscape:connector-curvature="0" fill="#00AF4F" fill-opacity="0.9412" d="M0,0
				c26.918,15.01,92.666-29.04,92.666-29.04s-13.052,0.979-48.782-46.333c-35.891-47.475-82.223-6.036-84.507,3.426
				c5.383,3.426,19.577,10.115,36.218-3.1c12.236-9.788-7.831,10.931-7.831,10.931s2.935,10.278,17.619,7.994
				c14.357-2.121,30.019-4.405,30.019-4.405L8.81-53.021l55.795,16.313c0,0-69.174-20.23-64.442-12.399l6.362,11.42
				c0,0-6.525-12.072-20.556-20.066c-2.937-1.305-13.542-9.626-27.898-7.668C-42.581-61.18-27.083-14.683,0,0"/>
		</g>
		<g id="g154" transform="matrix(1.25,0,0,-1.25,1574.4457,3841.7715)">
			<path id="path156" inkscape:connector-curvature="0" fill="#00AF4F" fill-opacity="0.9412" d="M0,0
				c30.672-2.938,60.364-76.026,60.364-76.026S50.25-67.869-5.872-87.283c-56.286-19.088-71.459,41.112-68.033,50.085
				c6.364,0,21.535-2.447,28.225-22.677c4.731-14.846-0.489,13.541-0.489,13.541s8.156,6.852,19.088-3.1
				c10.93-10.114,22.35-20.719,22.35-20.719l-17.782,21.209l55.306-17.784c0,0-68.685,21.863-60.201,25.778l11.747,5.873
				c0,0-12.401-6.362-28.225-5.058c-3.099,0.49-16.803-0.326-27.408,9.137C-69.662-27.083-30.672,2.773,0,0"/>
		</g>
		<g id="g158" transform="matrix(1.25,0,0,-1.25,3323.3606,2641.8411)">
			<path id="path160" inkscape:connector-curvature="0" fill="#00AF4F" fill-opacity="0.9412" d="M0,0
				c62.974-8.81,60.363-86.467,53.838-95.276c-7.015,4.567-19.741,15.988-20.556,40.623c-0.653,19.577-3.426-15.662-3.426-15.662
				S19.577-73.579,11.42-56.284C3.263-38.992-5.547-20.882-5.547-20.882L6.363-54.49L-44.375-4.241h-0.164h0.164
				c1.794-1.958,62.974-62.322,53.511-61.832l-13.54-0.653c0,0,14.355,0.653,30.018-9.789c3.263-1.795,16.315-8.157,24.472-23.492
				c-2.773-3.427-50.901-15.826-81.409,3.915C-61.668-76.188-70.641,23.656-70.641,23.656S-62.648,8.647,0,0"/>
		</g>
		<g id="g162" transform="matrix(1.25,0,0,-1.25,3284.2065,2484.6426)">
			<path id="path164" inkscape:connector-curvature="0" fill="#004857" fill-opacity="0.9412" d="M0,0h-0.163H0z"/>
		</g>
		<g id="g166" transform="matrix(1.25,0,0,-1.25,3171.839,4598.765)">
			<path id="path168" inkscape:connector-curvature="0" fill="#004857" d="M0,0h-32.956l-16.313,28.55l16.478,28.552H0.164
				l16.315-28.715L0,0z"/>
		</g>
		<g id="g170" transform="matrix(1.25,0,0,-1.25,2631.0144,4577.3526)">
			<path id="path172" inkscape:connector-curvature="0" fill="#004857" d="M0,0h-13.214l-6.527,11.42l6.527,11.42H0l6.525-11.583
				L0,0z"/>
		</g>
		<g id="g174" transform="matrix(1.25,0,0,-1.25,4837.5513,4563.2815)">
			<path id="path176" inkscape:connector-curvature="0" fill="#004857" d="M0,0c0-31.323-25.615-57.101-57.103-57.101
				c-31.649,0-57.099,25.778-57.099,57.101c0,31.487,25.45,57.427,57.099,57.427C-25.615,57.427,0,31.487,0,0"/>
		</g>
		<g id="g178" transform="matrix(1.25,0,0,-1.25,4304.4739,4563.0776)">
			<path id="path180" inkscape:connector-curvature="0" fill="#004857" d="M0,0c0-26.756-21.861-48.617-48.617-48.617
				c-26.919,0-48.617,21.861-48.617,48.617s21.698,48.617,48.617,48.617C-21.861,48.617,0,26.756,0,0"/>
		</g>
		<g id="g182" transform="matrix(1.25,0,0,-1.25,3737.1375,4563.0776)">
			<path id="path184" inkscape:connector-curvature="0" fill="#004857" d="M0,0c0-19.25-15.662-35.238-35.076-35.238
				C-54.491-35.238-70.153-19.25-70.153,0c0,19.414,15.662,35.077,35.077,35.077C-15.662,35.077,0,19.414,0,0"/>
		</g>
		<g id="g186" transform="matrix(1.25,0,0,-1.25,2551.2769,5887.4062)">
			<path id="path188" inkscape:connector-curvature="0" fill="#004857" d="M0,0l-177.501-173.75v-305.407
				c18.272-9.462,30.67-28.551,30.67-50.575c0-31.651-25.613-57.264-57.1-57.264s-57.265,25.613-57.265,57.264
				c0,21.861,12.401,40.949,30.673,50.575v327.759L0.979,75.209L0,289.256l565.787,565.623h733.01h1009.215l46.986,46.497
				l138.184,138.999l362.344,0.163l290.072-287.298h962.066l28.714-50.738H2846.881l-96.746,99.355H1298.797H587.812
				L269.025,483.235l198.06-197.894L256.79,75.698l-0.977-96.744l192.673-190.063v-196.59c19.577-9.137,33.118-28.878,33.118-51.88
				c0-31.325-25.614-57.101-57.264-57.101c-31.486,0-57.101,25.776-57.101,57.101c0,21.045,11.42,39.48,28.224,49.432v177.012
				l-139.65,138.51v-441.96h-53.187V91.361l190.879,189.574l-162.002,164.94L53.021,267.231v-511.133
				c17.132-9.789,28.715-28.387,28.715-49.596c0-31.324-25.778-57.102-57.264-57.102c-31.487,0-57.101,25.778-57.101,57.102
				c0,22.84,13.378,42.581,32.629,51.717L0,0z"/>
		</g>
		<g id="g190" transform="matrix(1.25,0,0,-1.25,7220.4859,5710.8022)">
			<path id="path192" inkscape:connector-curvature="0" fill="#004857" d="M0,0c31.488,0,57.102-25.777,57.102-57.264
				c0-31.486-25.614-57.263-57.102-57.263c-22.514,0-41.928,13.214-51.227,31.976h-1635.855l422.546-418.793
				c5.057,1.631,10.441,2.446,16.151,2.446c31.324,0,57.1-25.776,57.1-57.264c0-31.486-25.776-57.264-57.1-57.264
				c-31.65,0-57.263,25.778-57.263,57.264c0,6.199,0.978,12.236,2.937,17.947l-459.418,455.664h-378.822l-465.453,464.473
				l-282.893-284.851l347.498-347.009v-146.341l292.846-289.256v-227.099c17.783-9.788,29.854-28.714,29.854-50.411
				c0-31.324-25.612-57.101-57.262-57.101c-31.651,0-57.102,25.777-57.102,57.101c0,22.351,12.726,41.766,31.487,51.228v204.256
				l-239.823,239.825v-324.496l122.686-132.311v-189.901c16.803-9.952,28.223-28.387,28.223-49.27c0-31.486-25.613-57.1-57.263-57.1
				c-31.488,0-56.938,25.614-56.938,57.1c0,22.841,13.379,42.744,32.956,51.881v166.407l-89.404,96.582l-365.281-373.113
				c1.957-5.709,2.936-11.584,2.936-17.945c0-31.651-25.613-57.264-57.101-57.264c-31.65,0-57.264,25.613-57.264,57.264
				c0,31.65,25.614,57.101,57.264,57.101c5.547,0,11.094-0.815,16.152-2.285l366.097,376.377v536.746L-2808.704-58.08
				l-79.125-79.125l134.105-134.106v-420.914c18.599-9.462,31.325-28.713,31.325-51.064c0-31.323-25.614-57.101-57.101-57.101
				c-31.65,0-57.102,25.778-57.102,57.101c0,21.861,12.073,40.786,29.856,50.412v399.543l-118.607,118.605l-157.76-157.761
				c2.121-6.035,3.426-12.561,3.426-19.413c0-31.488-25.451-57.101-57.101-57.101c-31.486,0-57.101,25.613-57.101,57.101
				c0,31.485,25.615,57.263,57.101,57.263c5.058,0,9.952-0.652,14.519-1.958l276.042,276.041l-118.77,116.323l516.844,517.496
				h1429.151l52.694-53.023h-1458.678l-144.71-143.893l448.811-445.875h135.411l287.951,287.951h210.947l167.55,166.245
				c-2.285,6.199-3.59,13.051-3.59,20.067c0,31.323,25.614,57.1,57.264,57.1c31.325,0,57.1-25.777,57.1-57.1
				c0-31.651-25.775-57.265-57.1-57.265c-4.894,0-9.462,0.653-14.031,1.632l-130.678-130.679h387.957l54.002,92.992l137.041-0.163
				l68.196-119.095l-68.847-118.281l-137.206,0.326l-52.369,91.198h-654.211l-234.93-234.928H-50.084C-40.296-11.91-21.371,0,0,0"/>
		</g>
		<g id="g194" transform="matrix(1.25,0,0,-1.25,8454.0674,4828.1875)">
			<path id="path196" inkscape:connector-curvature="0" fill="#C30065" d="M0,0l-445.713,0.162L0,0z"/>
		</g>
		<g id="g198" transform="matrix(1.25,0,0,-1.25,8454.0674,4828.1875)">
			<path id="path200" inkscape:connector-curvature="0" fill="#C30065" d="M0,0l72.844-144.71l-520.351-0.326l23.982,41.276
				l18.761,32.139l-40.949,71.783L0,0z"/>
		</g>
		<g id="g202" transform="matrix(1.25,0,0,-1.25,7318.374,4589.1812)">
			<path id="path204" inkscape:connector-curvature="0" fill="#004857" d="M0,0h-880.982l241.453-235.744h934.82l40.949,70.642
				l111.755-0.164l14.521-25.777h0.326l40.949-71.783l-42.743-73.415h1343.47v716.369l-354.69-0.488l-113.834,1.957l-875.109,0.163
				l-75.699-106.207l-153.358,0.326L154.661,382.25h-600.21l-156.457-155.641h388.611l28.225,49.107h81.41l40.623-70.48
				l-40.623-70.477h-81.41l-0.816,1.468h-1.468l-9.462,18.925l-15.662,27.081h-751.283l-120.565-129.537H-2.773l47.474,82.063
				l121.707-0.164l60.527-106.044L165.918-77.004L44.051-76.841L0,0z"/>
		</g>
		<g id="g206" transform="matrix(1.25,0,0,-1.25,8352.9248,4481.0525)">
			<path id="path208" inkscape:connector-curvature="0" fill="#00AF4F" fill-opacity="0.9412" d="M0.8,0l47.323-81.532
				L1.258-162.973l-94.188-0.274l-47.232,81.349l46.774,81.806L0.8,0z"/>
		</g>
		<g id="g210" transform="matrix(1.25,0,0,-1.25,8781.4611,4426.774)">
		</g>
		<g id="g214" transform="matrix(1.25,0,0,-1.25,9077.3658,4287.4881)">
		</g>
		<g id="g702" transform="matrix(1.25,0,0,-1.25,7050.5822,3801.0269)">
			<path id="path704" inkscape:connector-curvature="0" fill="#00AF4F" fill-opacity="0.9412" d="M0.8,0
				c-13.933,0-25.248-11.315-25.248-25.271c0-13.927,11.315-25.213,25.248-25.213c13.921,0,25.265,11.286,25.265,25.213
				C26.065-11.315,14.721,0,0.8,0"/>
		</g>
		<g id="g706" transform="matrix(1.25,0,0,-1.25,6981.4185,3935.9989)">
			<path id="path708" inkscape:connector-curvature="0" fill="#00AF4F" fill-opacity="0.9412" d="M0.8,0l34.211,45.006
				L17.349,73.323l-61.357-0.463l-39.141,0.062l16.539-13.394l57.435-10.824l-68.06-73.173l-96.966-13.747l16.577-17.762
				l95.349,1.574l24.945,15.15L9.056-76.081l9.511-69.758h15.348l0.265,79.292L-7.21-10.806L0.8,0z"/>
		</g>
		<g id="g710" transform="matrix(1.25,0,0,-1.25,8725.6286,3771.3455)">
			<path id="path712" inkscape:connector-curvature="0" fill="#00AF4F" fill-opacity="0.9412" d="M0.8,0
				c-8.734,0-15.828-7.094-15.828-15.843c0-8.732,7.094-15.808,15.828-15.808c8.729,0,15.84,7.076,15.84,15.808
				C16.64-7.094,9.529,0,0.8,0"/>
		</g>
		<g id="g714" transform="matrix(1.25,0,0,-1.25,8682.2669,3855.9659)">
			<path id="path716" inkscape:connector-curvature="0" fill="#00AF4F" fill-opacity="0.9412" d="M0.8,0l21.449,28.217L11.175,45.97
				l-38.467-0.29l-24.539,0.039l10.369-8.398l36.008-6.786l-42.67-45.875l-60.792-8.619l10.394-11.136l59.777,0.987l15.64,9.498
				L5.976-47.698l5.963-43.735h9.623l0.166,49.712L-4.221-6.774L0.8,0z"/>
		</g>
		<g id="g718" transform="matrix(1.25,0,0,-1.25,6147.3963,3730.8945)">
			<path id="path720" inkscape:connector-curvature="0" fill="#004857" d="M0,0c-8.932,0-16.185-7.253-16.185-16.199
				c0-8.927,7.253-16.162,16.185-16.162c8.923,0,16.193,7.235,16.193,16.162C16.193-7.253,8.923,0,0,0"/>
		</g>
		<g id="g722" transform="matrix(1.25,0,0,-1.25,6103.0615,3817.4118)">
			<path id="path724" inkscape:connector-curvature="0" fill="#004857" d="M0,0l21.928,28.849L10.607,47l-39.329-0.297l-25.09,0.04
				l10.601-8.585l36.818-6.938l-43.628-46.904l-62.155-8.812l10.626-11.386l61.117,1.008l15.992,9.712L5.291-48.768l6.097-44.714
				h9.839l0.169,50.826L-5.135-6.926L0,0z"/>
		</g>
		<g id="g726" transform="matrix(1.25,0,0,-1.25,7612.1594,3605.8414)">
			<path id="path728" inkscape:connector-curvature="0" fill="#004857" d="M0,0c-10.767,0-19.511-8.743-19.511-19.527
				c0-10.763,8.744-19.484,19.511-19.484c10.756,0,19.522,8.721,19.522,19.484C19.522-8.743,10.756,0,0,0"/>
		</g>
		<g id="g730" transform="matrix(1.25,0,0,-1.25,7558.7159,3710.1395)">
			<path id="path732" inkscape:connector-curvature="0" fill="#004857" d="M0,0l26.433,34.778L12.785,56.659l-47.41-0.358
				l-30.246,0.049L-52.092,46l44.383-8.363l-52.594-56.544L-135.23-29.53l12.808-13.725l73.679,1.215l19.278,11.708L6.377-58.789
				l7.351-53.905h11.86l0.204,61.272L-6.191-8.349L0,0z"/>
		</g>
		<g id="g734" transform="matrix(1.25,0,0,-1.25,5345.6091,3947.1659)">
			<path id="path736" inkscape:connector-curvature="0" fill="#004857" d="M0,0c-7.405,0-13.419-6.014-13.419-13.43
				c0-7.402,6.014-13.4,13.419-13.4c7.397,0,13.426,5.998,13.426,13.4C13.426-6.014,7.397,0,0,0"/>
		</g>
		<g id="g738" transform="matrix(1.25,0,0,-1.25,5308.8514,4018.8967)">
			<path id="path740" inkscape:connector-curvature="0" fill="#004857" d="M0,0l18.181,23.918l-9.387,15.05l-32.607-0.247
				l-20.802,0.033l8.789-7.118L-5.3,25.884l-36.172-38.888l-51.533-7.306l8.811-9.44l50.672,0.836l13.257,8.053L4.387-40.434
				l5.054-37.072h8.158l0.14,42.14L-4.257-5.742L0,0z"/>
		</g>
		<g id="g742" transform="matrix(1.25,0,0,-1.25,4051.8579,3410.007)">
			<path id="path744" inkscape:connector-curvature="0" fill="#00AF4F" fill-opacity="0.9412" d="M0,0
				c28.86,3.247,38.69-41.848,37.067-47.89c-3.697,1.623-11.003,6.583-14.791,20.743c-2.975,11.184,0.632-9.56,0.632-9.56
				s-4.058-3.157-10.101,5.772C6.764-22.096,0.361-12.626,0.361-12.626l10.011-17.858L-19.211-8.297
				c0,0,36.708-27.689,32.469-28.771l-5.862-1.984c0,0,6.132,2.255,14.61-1.713c1.533-0.722,8.298-2.616,14.07-10.372
				c-0.812-2.255-20.384-15.873-36.527-8.298C-16.685-51.769-34.542,4.509-34.542,4.509S-28.951-3.066,0,0"/>
		</g>
		<path id="path746" inkscape:connector-curvature="0" fill="none" stroke="#FFFFFF" stroke-width="1.25" d="M9574.021,0H-35.432
			v7937.007h9609.454V0z"/>
	</g>
</g>
</svg>
